<?xml version="1.0" encoding="utf-8"?>
<!-- Generator: Adobe Illustrator 18.0.0, SVG Export Plug-In . SVG Version: 6.00 Build 0)  -->
<!DOCTYPE svg PUBLIC "-//W3C//DTD SVG 1.1//EN" "http://www.w3.org/Graphics/SVG/1.1/DTD/svg11.dtd">
<svg version="1.1" id="Laag_1" xmlns="http://www.w3.org/2000/svg" xmlns:xlink="http://www.w3.org/1999/xlink" x="0px" y="0px"
	 viewBox="0 0 1280 1280" enable-background="new 0 0 1280 1280" xml:space="preserve">
<g>
	<g>
		<polygon fill="#E6E6E6" points="285,1117.8 824,797.8 824,482.8 285,162.5 		"/>
		<path fill="#F44336" d="M278.2,162.5l-85.1-48.9c-3.5-2-8,0.5-8,4.5l0.2,1043.8c0,4,4.6,6.5,8.1,4.5l84.7-48.8V162.5z"/>
		<polygon fill="#FCAD00" points="334,1087.3 824,797.4 824,482.8 334,192.9 		"/>
		<path fill="#FAE0B8" d="M1091.9,634.5L824,482.4v315.4l265.6-152.1C1094,643.2,1096.2,637,1091.9,634.5z"/>
		<path fill="#1C1C1C" d="M1094.2,637.5L968,566.6v146.9l124.5-70.8C1094.5,641.5,1096.3,638.6,1094.2,637.5z"/>
	</g>
</g>
</svg>
